<svg width="1355" height="894" viewBox="0 0 1355 894" fill="none" xmlns="http://www.w3.org/2000/svg">
<rect x="15" y="23" width="1325" height="675" rx="75" stroke="white" stroke-width="30" stroke-linejoin="round"/>
<rect x="563" y="698" width="229" height="181" stroke="white" stroke-width="30"/>
<line x1="350" y1="879" x2="1003.04" y2="879" stroke="white" stroke-width="30"/>
<line x1="242.606" y1="226.215" x2="80.1882" y2="381.925" stroke="white" stroke-width="30"/>
<line x1="218.008" y1="523.052" x2="89.6755" y2="370.112" stroke="white" stroke-width="30"/>
<line x1="1112.31" y1="495.078" x2="1274.95" y2="339.6" stroke="white" stroke-width="30"/>
<line x1="1136.99" y1="198.358" x2="1265.32" y2="351.298" stroke="white" stroke-width="30"/>
<path d="M499.595 486.474L613.413 164.758H657.249L518.821 538H486.777L499.595 486.474ZM387.314 164.758L500.364 486.474L513.438 538H481.65L343.479 164.758H387.314ZM978.965 356.25V491.088C974.521 497.583 967.173 504.931 956.919 513.134C946.665 521.167 932.651 528.173 914.878 534.155C897.275 540.136 875.059 543.127 848.228 543.127C818.491 543.127 792.087 536.206 769.016 522.363C745.945 508.349 727.915 488.354 714.927 462.377C701.938 436.23 695.444 405.126 695.444 369.067V332.153C695.444 296.435 701.255 265.759 712.876 240.124C724.497 214.318 741.331 194.494 763.376 180.651C785.422 166.638 811.912 159.631 842.844 159.631C871.042 159.631 894.626 164.501 913.596 174.243C932.737 183.984 947.69 197.314 958.457 214.233C969.224 231.152 976.06 250.378 978.965 271.911H938.462C936.069 257.727 931.284 244.738 924.106 232.946C917.1 220.983 907.017 211.413 893.857 204.235C880.698 197.058 863.694 193.469 842.844 193.469C819.26 193.469 799.521 199.194 783.628 210.644C767.905 221.923 756.028 237.902 747.996 258.581C739.963 279.26 735.947 303.613 735.947 331.64V369.067C735.947 397.949 740.647 422.9 750.046 443.92C759.446 464.77 772.52 480.92 789.268 492.37C806.187 503.82 825.84 509.545 848.228 509.545C866.685 509.545 881.895 507.922 893.857 504.675C905.991 501.257 915.647 497.241 922.825 492.626C930.002 488.012 935.3 483.74 938.718 479.809V389.831H845.408V356.25H978.965Z" fill="white"/>
</svg>
