<svg width="1355" height="915" viewBox="0 0 1355 915" fill="none" xmlns="http://www.w3.org/2000/svg">
<rect x="5" y="13" width="1345" height="695" rx="85" stroke="white" stroke-width="10" stroke-linejoin="round"/>
<rect x="553" y="709" width="249" height="201" stroke="white" stroke-width="10"/>
<line x1="350" y1="910" x2="1003.04" y2="910" stroke="white" stroke-width="10"/>
<line x1="232.163" y1="211.214" x2="103.83" y2="364.154" stroke="white" stroke-width="10"/>
<line x1="225.668" y1="516.625" x2="97.336" y2="363.684" stroke="white" stroke-width="10"/>
<line x1="1122.84" y1="510.197" x2="1251.17" y2="357.256" stroke="white" stroke-width="10"/>
<line x1="1129.33" y1="204.786" x2="1257.66" y2="357.727" stroke="white" stroke-width="10"/>
<path d="M498.374 525.865L629.697 172.984H645.542L499.448 564H485.752L498.374 525.865ZM351.475 172.984L482.798 525.865L495.42 564H481.724L335.63 172.984H351.475ZM980.43 386.754V522.105C976.312 528.014 968.524 534.638 957.065 541.979C945.786 549.319 930.926 555.764 912.485 561.314C894.224 566.686 872.381 569.371 846.958 569.371C817.238 569.371 791.009 562.12 768.271 547.618C745.713 533.116 728.078 512.975 715.366 487.193C702.655 461.412 696.299 431.513 696.299 397.496V333.58C696.299 300.637 702.476 271.723 714.829 246.837C727.183 221.951 744.37 202.525 766.392 188.561C788.413 174.596 813.747 167.613 842.393 167.613C870.68 167.613 894.582 172.537 914.097 182.384C933.612 192.231 948.83 205.569 959.751 222.398C970.851 239.049 977.565 257.848 979.893 278.795H965.391C962.705 261.786 956.886 245.942 947.935 231.261C938.983 216.58 925.913 204.763 908.726 195.812C891.717 186.681 869.606 182.115 842.393 182.115C815.895 182.115 792.71 188.561 772.837 201.451C753.143 214.342 737.835 232.156 726.914 254.894C716.172 277.631 710.801 303.681 710.801 333.043V397.496C710.801 428.111 716.351 455.325 727.451 479.137C738.73 502.77 754.575 521.3 774.985 534.728C795.396 548.155 819.386 554.869 846.958 554.869C868.263 554.869 887.062 552.721 903.354 548.424C919.826 543.948 933.343 538.666 943.906 532.579C954.648 526.313 961.989 520.584 965.928 515.392V401.524H846.421V386.754H980.43Z" fill="white"/>
</svg>
